HIERARCHY
ROOT root
{
	OFFSET	0	13.1	24.9
	CHANNELS 6  Xposition Yposition Zposition Xrotation Yrotation Zrotation
	JOINT spine_1
	{
		OFFSET	0	9.99999	0
		CHANNELS 3  Xrotation Yrotation Zrotation
		JOINT spine_2
		{
			OFFSET	0	112	-10
			CHANNELS 3  Xrotation Yrotation Zrotation
			JOINT spine_3
			{
				OFFSET	0	206.5	19.3
				CHANNELS 3  Xrotation Yrotation Zrotation
				JOINT spine_4
				{
					OFFSET	0	110.4	14.6
					CHANNELS 3  Xrotation Yrotation Zrotation
					JOINT neck_1
					{
						OFFSET	0	71.8	-50.3
						CHANNELS 3  Xrotation Yrotation Zrotation
						JOINT neck_2
						{
							OFFSET	0	86.2	-25.8
							CHANNELS 3  Xrotation Yrotation Zrotation
							JOINT head_ee
							{
								OFFSET	0	179.8	-8.7
								CHANNELS 3  Xrotation Yrotation Zrotation
								End Site
								{
									OFFSET	1	0	0
								}
							}
						}
					}
					JOINT left_clavicle
					{
						OFFSET	-43.2	22.4	-70.8
						CHANNELS 3  Xrotation Yrotation Zrotation
						JOINT left_shoulder
						{
							OFFSET	-93.9	-5.79999	48.7
							CHANNELS 3  Xrotation Yrotation Zrotation
							JOINT left_elbow
							{
								OFFSET	-291.4	-30.8	15.2
								CHANNELS 3  Xrotation Yrotation Zrotation
								JOINT left_lowarm_twist
								{
									OFFSET	-110.7	-3.89999	13.6
									CHANNELS 3  Xrotation Yrotation Zrotation
									JOINT left_hand
									{
										OFFSET	-110.7	-3.89999	13.6
										CHANNELS 3  Xrotation Yrotation Zrotation
										JOINT left_ee
										{
											OFFSET	-80.8	-5.10001	12.1
											CHANNELS 3  Xrotation Yrotation Zrotation
											End Site
											{
												OFFSET	1	0	0
											}
										}
									}
								}
							}
						}
					}
					JOINT right_clavicle
					{
						OFFSET	43.2	22.4	-70.8
						CHANNELS 3  Xrotation Yrotation Zrotation
						JOINT right_shoulder
						{
							OFFSET	93.9	-5.79999	48.7
							CHANNELS 3  Xrotation Yrotation Zrotation
							JOINT right_elbow
							{
								OFFSET	291.4	-30.8	15.2
								CHANNELS 3  Xrotation Yrotation Zrotation
								JOINT right_lowarm_twist
								{
									OFFSET	110.7	-3.89999	13.6
									CHANNELS 3  Xrotation Yrotation Zrotation
									JOINT right_hand
									{
										OFFSET	110.7	-3.89999	13.6
										CHANNELS 3  Xrotation Yrotation Zrotation
										JOINT right_ee
										{
											OFFSET	80.8	-5.10001	12.1
											CHANNELS 3  Xrotation Yrotation Zrotation
											End Site
											{
												OFFSET	1	0	0
											}
										}
									}
								}
							}
						}
					}
				}
			}
		}
	}
	JOINT left_hip
	{
		OFFSET	-82.8	-127.5	0.300001
		CHANNELS 3  Xrotation Yrotation Zrotation
		JOINT left_knee
		{
			OFFSET	-28.2	-396.7	2.2
			CHANNELS 3  Xrotation Yrotation Zrotation
			JOINT left_ankle
			{
				OFFSET	-11.7	-411.3	35.4
				CHANNELS 3  Xrotation Yrotation Zrotation
				JOINT left_toes
				{
					OFFSET	0	-60	-88.6
					CHANNELS 3  Xrotation Yrotation Zrotation
					JOINT left_foot_ee
					{
						OFFSET	-22.5	-16.5	-42.2
						CHANNELS 3  Xrotation Yrotation Zrotation
						End Site
						{
							OFFSET	1	0	0
						}
					}
				}
			}
		}
	}
	JOINT right_hip
	{
		OFFSET	82.8	-127.5	0.300001
		CHANNELS 3  Xrotation Yrotation Zrotation
		JOINT right_knee
		{
			OFFSET	28.2	-396.7	2.2
			CHANNELS 3  Xrotation Yrotation Zrotation
			JOINT right_ankle
			{
				OFFSET	11.7	-411.3	35.4
				CHANNELS 3  Xrotation Yrotation Zrotation
				JOINT right_toes
				{
					OFFSET	0	-60	-88.6
					CHANNELS 3  Xrotation Yrotation Zrotation
					JOINT right_foot_ee
					{
						OFFSET	22.5	-16.5	-42.2
						CHANNELS 3  Xrotation Yrotation Zrotation
						End Site
						{
							OFFSET	1	0	0
						}
					}
				}
			}
		}
	}
}
MOTION
Frames: 6
Frame Time: 0.02
2819.50218717 684.515 -1865.32868809 7.90917207947 34.5262615197 -4.71098588399 -3.50746 -0.166656 0.0197884 -3.50747 -0.167577 0.00914349 -3.50752 -0.163838 -0.0363732 -3.50748 -0.167526 -0.0100415 3.57842 9.47285 2.64301 3.77461 14.1808 3.55432 -0.0 0.0 -0.0 9.70415 11.4303 18.1523 -1.25128 -24.2282 51.5258 1.35495 -33.8678 0.412558 -27.8547 -1.76156 3.0592 1.19472 24.0405 16.6093 -0.0 0.0 -0.0 6.0356 6.66109 -11.5049 -11.5273 25.5852 -62.1183 0.585528 16.1751 -0.0832038 -36.742 2.61153 -3.81699 -0.358682 4.8843 4.49069 0.0 0.0 0.0 4.50921 -12.8162 4.27238 -11.1619 0.296267 1.68466 1.51382 21.7244 -0.226864 -30.6998 0.0 0.0 -0.0 0.0 -0.0 26.6324 25.8601 -8.44435 -69.7129 3.33486 -9.50262 9.75394 -19.8118 1.41808 30.5761 -0.0 -0.0 0.0 0.0 0.0 
2791.14679291 686.722 -1869.40674201 6.21929160913 35.2229223282 -3.76368622758 -2.78663 -0.0943964 -0.180752 -2.78662 -0.0827034 -0.186392 -2.78632 -0.0319286 -0.201401 -2.78637 -0.0633354 -0.193831 2.86398 8.83831 3.83805 3.00783 12.1627 4.89399 -0.0 0.0 -0.0 9.64399 12.636 17.9051 -0.571961 -25.6324 51.2639 1.4479 -35.6477 0.465555 -28.1662 -1.7893 3.08793 0.915111 20.4921 13.7895 -0.0 0.0 -0.0 5.55609 5.72141 -10.5587 -15.0468 27.9629 -61.4525 0.563752 15.6034 -0.0772421 -37.1594 2.65426 -3.84927 0.248097 4.7766 0.351786 0.0 0.0 0.0 2.28841 -12.1414 4.49244 -6.82308 0.220199 1.02337 2.55143 22.4714 -0.38263 -33.27 0.0 0.0 -0.0 0.0 -0.0 30.199 25.9393 -8.40892 -69.8188 3.34812 -9.5122 6.62338 -21.1719 0.977237 28.1529 -0.0 -0.0 0.0 0.0 0.0 
2758.55812347 686.643 -1874.26142462 5.58189809097 36.1404650173 -3.25032088773 -2.26447 -0.0791496 -0.418799 -2.26437 -0.0523401 -0.422987 -2.26387 0.0544718 -0.422718 -2.26412 -0.0129715 -0.426015 2.78177 8.28554 3.65254 2.90704 11.3663 4.6544 -0.0 0.0 -0.0 9.07825 13.1257 16.843 -1.17844 -27.5177 51.1069 1.57174 -37.9013 0.539709 -24.6562 -1.48596 2.75576 0.883358 14.2687 11.4283 -0.0 0.0 -0.0 4.75709 3.7772 -9.02755 -16.1875 27.3957 -62.3108 0.569318 15.7499 -0.0787462 -37.684 2.70829 -3.88941 0.55203 1.68882 -2.98916 0.0 0.0 0.0 -1.13457 -9.24411 4.75212 -3.83648 0.138838 0.572303 6.47395 22.448 -0.960798 -32.5363 0.0 0.0 -0.0 0.0 -0.0 34.6491 23.8657 -6.72718 -68.4335 3.17607 -9.38502 2.99953 -17.6645 0.441535 25.1123 -0.0 -0.0 0.0 0.0 0.0 
2739.20387336 681.522 -1880.72685206 5.39661485504 34.5393984306 -3.15159863625 -2.03422 -0.0125018 -0.549164 -2.03405 0.0224677 -0.548847 -2.03412 0.156117 -0.526655 -2.0345 0.0709836 -0.544701 3.06708 8.562 4.00788 3.20077 11.501 5.05682 -0.0 0.0 -0.0 8.52312 14.6287 15.7226 1.0612 -27.9918 52.2104 1.81244 -41.9145 0.69423 -23.4574 -1.38712 2.63818 1.13305 13.2063 12.6483 -0.0 0.0 -0.0 3.88568 4.3181 -7.25018 -16.6294 30.4942 -63.4139 0.528702 14.6765 -0.0680876 -38.8597 2.83072 -3.97756 0.628205 -0.77152 -4.5161 0.0 0.0 0.0 -3.53665 -8.07347 4.91838 -2.37468 0.0904651 0.35318 11.2979 19.8365 -1.63441 -34.9355 0.0 0.0 -0.0 0.0 -0.0 36.3229 20.9135 -3.81593 -65.2791 2.79617 -9.08027 -1.12115 -15.4961 -0.165747 21.263 -0.0 -0.0 0.0 0.0 0.0 
2722.08086059 682.1 -1889.26377821 3.89291663573 33.1894606475 -1.41265364922 -1.36301 -0.0153445 -0.966753 -1.36249 0.0462007 -0.96577 -1.36289 0.270333 -0.928317 -1.36408 0.120337 -0.959357 5.43692 8.47399 2.96177 5.59184 11.8867 3.77255 -0.0 0.0 -0.0 8.50984 13.3029 15.8274 2.89678 -24.3484 52.8506 1.91669 -43.5107 0.764948 -17.7956 -0.954664 2.05639 0.560962 10.2456 7.85241 -0.0 0.0 -0.0 3.97341 5.07533 -7.37999 -18.9137 29.7299 -62.2205 0.50541 14.0561 -0.0623082 -38.9135 2.83637 -3.98154 1.43032 -2.55804 -10.6182 0.0 0.0 0.0 -4.88033 -13.5185 4.68189 -0.0630355 0.00259069 0.00932648 13.0332 19.4646 -1.87165 -35.644 0.0 0.0 -0.0 0.0 -0.0 36.3336 17.2991 -2.71651 -59.4678 2.14279 -8.46655 -5.63367 -9.70416 -0.834323 18.4652 -0.0 -0.0 0.0 0.0 0.0 
2692.01100749 682.237 -1899.99283506 4.27158450116 33.9382180528 -2.69114839771 -1.36718 -0.196216 -0.79693 -1.36684 -0.145109 -0.8078 -1.36444 0.0474345 -0.819357 -1.36537 -0.0825585 -0.816566 5.58174 8.40927 2.78225 5.7384 11.9122 3.55725 -0.0 0.0 -0.0 6.8301 15.0921 12.8308 5.45294 -27.4328 56.352 2.0966 -46.0789 0.891738 -13.4302 -0.661808 1.58061 1.08612 8.73935 10.7016 -0.0 0.0 -0.0 5.53456 1.99075 -10.6508 -28.096 32.9197 -54.4893 0.616574 16.9845 -0.0920632 -40.6668 3.02235 -4.10813 1.58181 -6.30574 -13.0824 0.0 0.0 0.0 -4.17201 -8.99975 7.34282 -3.70518 0.134722 0.552572 26.9431 19.9908 -3.65351 -39.777 0.0 0.0 -0.0 0.0 -0.0 35.2687 13.9281 -3.31988 -51.3397 1.34083 -7.50528 -12.1386 -14.3915 -1.82339 15.1985 -0.0 -0.0 0.0 0.0 0.0 
